<svg xmlns="http://www.w3.org/2000/svg" width="32" height="32" viewBox="0 0 24 24">
  <rect x="1" y="1" width="22" height="22" rx="5" fill="#1A3A5C"/>
  <g fill="none" stroke="#ffffff" stroke-width="1.8" stroke-linecap="round" stroke-linejoin="round">
    <path d="M18 16.5h1.8c.5 0 .9-.4.9-.9v-2.4c0-.8-.6-1.5-1.3-1.7-1.5-.4-3.6-.9-3.6-.9s-1.1-1.3-1.9-2c-.4-.4-1-.6-1.5-.6H6.2c-.5 0-1 .3-1.2.8l-1.2 2.5A3.3 3.3 0 0 0 3.5 12v3.6c0 .5.4.9.9.9H6"/>
    <circle cx="8" cy="16.5" r="1.6"/>
    <path d="M9.6 16.5h4.8"/>
    <circle cx="15" cy="16.5" r="1.6"/>
  </g>
</svg>
